<svg width="24" height="25" viewBox="0 0 24 25" fill="none" xmlns="http://www.w3.org/2000/svg">
<path fill-rule="evenodd" clip-rule="evenodd" d="M16.9229 10.7C16.5089 10.7 16.1729 10.364 16.1729 9.95V7.803C16.1729 5.707 14.4679 4.002 12.3719 4.002H12.3559C11.3429 4.002 10.3939 4.392 9.6769 5.103C8.9549 5.817 8.5559 6.77 8.5519 7.786V9.95C8.5519 10.364 8.2159 10.7 7.8019 10.7C7.3879 10.7 7.0519 10.364 7.0519 9.95V7.803C7.0579 6.363 7.6149 5.034 8.6199 4.038C9.6259 3.041 10.9539 2.464 12.3749 2.502C15.2949 2.502 17.6729 4.88 17.6729 7.803V9.95C17.6729 10.364 17.3369 10.7 16.9229 10.7Z" fill="#737373"/>
<path fill-rule="evenodd" clip-rule="evenodd" d="M8.542 10.6288C6.864 10.6288 5.5 11.9928 5.5 13.6708V17.9598C5.5 19.6378 6.864 21.0018 8.542 21.0018H16.183C17.86 21.0018 19.225 19.6378 19.225 17.9598V13.6708C19.225 11.9928 17.86 10.6288 16.183 10.6288H8.542ZM16.183 22.5018H8.542C6.037 22.5018 4 20.4648 4 17.9598V13.6708C4 11.1658 6.037 9.1288 8.542 9.1288H16.183C18.688 9.1288 20.725 11.1658 20.725 13.6708V17.9598C20.725 20.4648 18.688 22.5018 16.183 22.5018Z" fill="#737373"/>
<path fill-rule="evenodd" clip-rule="evenodd" d="M12.3623 17.6756C11.9483 17.6756 11.6123 17.3396 11.6123 16.9256V14.7046C11.6123 14.2906 11.9483 13.9546 12.3623 13.9546C12.7763 13.9546 13.1123 14.2906 13.1123 14.7046V16.9256C13.1123 17.3396 12.7763 17.6756 12.3623 17.6756Z" fill="#737373"/>
</svg>
