<svg width="72" height="72" viewBox="0 0 72 72" fill="none" xmlns="http://www.w3.org/2000/svg">
<circle cx="36" cy="36" r="36" fill="#00B795"/>
<path fill-rule="evenodd" clip-rule="evenodd" d="M45.2044 28.3267V30.8823C48.075 31.7783 50.1666 34.3769 50.1666 37.4807V45.7088C50.1666 49.5513 46.981 52.6667 43.0536 52.6667H28.9479C25.0188 52.6667 21.8333 49.5513 21.8333 45.7088V37.4807C21.8333 34.3769 23.9265 31.7783 26.7954 30.8823V28.3267C26.8123 23.358 30.9277 19.3333 35.9745 19.3333C41.0891 19.3333 45.2044 23.358 45.2044 28.3267ZM36.0084 22.2318C39.4463 22.2318 42.2407 24.9645 42.2407 28.3267V30.5229H29.7591V28.2936C29.7761 24.948 32.5704 22.2318 36.0084 22.2318ZM37.4818 43.4249C37.4818 44.2365 36.8213 44.8824 35.9915 44.8824C35.1785 44.8824 34.518 44.2365 34.518 43.4249V39.7481C34.518 38.9531 35.1785 38.3071 35.9915 38.3071C36.8213 38.3071 37.4818 38.9531 37.4818 39.7481V43.4249Z" fill="white"/>
</svg>
