<svg width="72" height="72" viewBox="0 0 72 72" fill="none" xmlns="http://www.w3.org/2000/svg">
<circle cx="36" cy="36" r="36" fill="#00B795"/>
<g clip-path="url(#clip0_2229_22670)">
<path d="M29.6679 33.3761L26.0387 35.7346C26.0387 35.7346 20.3888 28.066 17 26.044L56.5858 22C56.5858 22 26.765 26.3805 24.4248 27.9005L29.6679 33.3761Z" fill="white"/>
<path d="M59 22C59 22 45.6058 25.7295 35.7192 45.806L31.8866 36.9566L28.6589 39.4862C28.6589 39.4862 34.7128 50.9892 35.0906 57C35.0906 57 43.3659 31.9858 59 22Z" fill="white"/>
<path d="M19.3402 45.0694C19.3402 45.0694 29.5649 31.8727 53.2023 23.4758C53.2023 23.4868 35.2094 30.1073 19.3402 45.0694Z" fill="white"/>
</g>
<defs>
<clipPath id="clip0_2229_22670">
<rect width="42" height="35" fill="white" transform="translate(17 22)"/>
</clipPath>
</defs>
</svg>
