<svg xmlns="http://www.w3.org/2000/svg" width="48.791" height="48.794" viewBox="0 0 48.791 48.794">
  <path id="_1243705_target_dartboard_goal_search_seo_icon" data-name="1243705_target_dartboard_goal_search_seo_icon" d="M37.735,20.8a1.158,1.158,0,0,0-.659,1.646,16.227,16.227,0,0,1,1.152,6.256,17.78,17.78,0,1,1-17.78-17.78,21.925,21.925,0,0,1,5.6.823,1.2,1.2,0,1,0,.659-2.3,19.9,19.9,0,0,0-6.256-.988A20.249,20.249,0,1,0,40.7,28.706a21.685,21.685,0,0,0-1.317-7.244A1.459,1.459,0,0,0,37.735,20.8ZM20.449,24.59a1.3,1.3,0,0,0,1.317-1.317,1.212,1.212,0,0,0-1.317-1.317,6.585,6.585,0,1,0,6.585,6.585,1.3,1.3,0,0,0-1.317-1.317c-.823,0-1.152.823-1.152,1.482a4.116,4.116,0,1,1-4.116-4.116Zm6.091-6.42a1.2,1.2,0,0,0-.659-1.646,12.405,12.405,0,0,0-5.433-1.152A13.42,13.42,0,0,0,6.95,28.706a13.5,13.5,0,0,0,27,0A11.928,11.928,0,0,0,32.8,23.273a1.2,1.2,0,0,0-1.646-.659,1.348,1.348,0,0,0-.659,1.646,10.866,10.866,0,0,1,.988,4.445,11.03,11.03,0,1,1-11.03-11.03,9.8,9.8,0,0,1,4.445.988A1.28,1.28,0,0,0,26.54,18.17ZM48.93,9.938a1.043,1.043,0,0,0-.988-.823l-6.75-1.152L40.04,1.213a1.043,1.043,0,0,0-.823-.988A1.28,1.28,0,0,0,37.9.555L29.833,8.621A1.018,1.018,0,0,0,29.5,9.774l1.317,6.914L20.449,27.06h-.165A1.811,1.811,0,1,0,22.1,28.871h0L32.632,18.334l6.75,1.317h.165a1.257,1.257,0,0,0,.823-.329l8.067-8.067A1.1,1.1,0,0,0,48.93,9.938ZM32.138,9.774l5.927-5.927.823,4.61-5.762,5.762Zm7.244,7.244-4.445-.823L40.7,10.432l4.445.823Z" transform="translate(-0.2 -0.161)" fill="#ff8900"/>
</svg>
