<svg xmlns="http://www.w3.org/2000/svg" width="19" height="18" viewBox="0 0 19 18">
  <g id="Group_4982" data-name="Group 4982" transform="translate(-384.803 -686.759)">
    <rect id="Rectangle_2160" data-name="Rectangle 2160" width="19" height="18" rx="1" transform="translate(384.803 686.759)" fill="#00b795"/>
    <g id="Check" transform="translate(389.538 691.086)">
      <path id="_13352081061536572528" data-name="13352081061536572528" d="M3.965,8.229a.623.623,0,0,1-.442-.184L.184,4.683a.632.632,0,0,1,0-.89.622.622,0,0,1,.884,0l2.872,2.89L9.681.21a.622.622,0,0,1,.882-.05.632.632,0,0,1,.05.888L4.431,8.019a.624.624,0,0,1-.448.21Z" transform="translate(-0.001 0)" fill="#f8f8f8"/>
    </g>
  </g>
</svg>
