<svg width="20" height="20" viewBox="0 0 20 20" fill="none" xmlns="http://www.w3.org/2000/svg">
<mask id="mask0_2045_561" style="mask-type:luminance" maskUnits="userSpaceOnUse" x="1" y="1" width="17" height="17">
<path fill-rule="evenodd" clip-rule="evenodd" d="M1.66602 1.66797H17.8967V17.8988H1.66602V1.66797Z" fill="white"/>
</mask>
<g mask="url(#mask0_2045_561)">
<path fill-rule="evenodd" clip-rule="evenodd" d="M9.78185 2.91797C5.99602 2.91797 2.91602 5.99714 2.91602 9.78297C2.91602 13.5688 5.99602 16.6488 9.78185 16.6488C13.5668 16.6488 16.6468 13.5688 16.6468 9.78297C16.6468 5.99714 13.5668 2.91797 9.78185 2.91797ZM9.78185 17.8988C5.30685 17.8988 1.66602 14.258 1.66602 9.78297C1.66602 5.30797 5.30685 1.66797 9.78185 1.66797C14.2568 1.66797 17.8968 5.30797 17.8968 9.78297C17.8968 14.258 14.2568 17.8988 9.78185 17.8988Z" fill="#737373"/>
</g>
<mask id="mask1_2045_561" style="mask-type:luminance" maskUnits="userSpaceOnUse" x="14" y="14" width="5" height="5">
<path fill-rule="evenodd" clip-rule="evenodd" d="M14.3652 14.7578H18.5519V18.9368H14.3652V14.7578Z" fill="white"/>
</mask>
<g mask="url(#mask1_2045_561)">
<path fill-rule="evenodd" clip-rule="evenodd" d="M17.9271 18.9368C17.7679 18.9368 17.6079 18.8759 17.4854 18.7543L14.5488 15.8259C14.3046 15.5818 14.3038 15.1859 14.5479 14.9418C14.7913 14.6959 15.1871 14.6976 15.4321 14.9401L18.3688 17.8693C18.6129 18.1134 18.6138 18.5084 18.3696 18.7526C18.2479 18.8759 18.0871 18.9368 17.9271 18.9368Z" fill="#737373"/>
</g>
</svg>
