<svg xmlns="http://www.w3.org/2000/svg" width="49.071" height="44.351" viewBox="0 0 49.071 44.351">
  <g id="C_-_72_x2C__Success_x2C__Achievement_x2C__flag_x2C__goal_x2C__mission_x2C__mountain_x2C__peak_x2C_" transform="translate(-48.559 -68.512)">
    <g id="Group_7566" data-name="Group 7566" transform="translate(48.559 68.512)">
      <path id="Path_11897" data-name="Path 11897" d="M135.546,94.793l2.9-1.923a.554.554,0,0,1,.553-.034l3.856,1.919,2.036-2.446L139.3,81.8c0-.016,0-.032,0-.048V76.859h7.441l-3.3-3.281a.554.554,0,0,1,0-.786l3.3-3.282h-7.442v-.443a.554.554,0,1,0-1.108,0V81.752a.545.545,0,0,0,.019.136L132.6,93.078Z" transform="translate(-122.655 -68.512)" fill="#00b795"/>
      <path id="Path_11898" data-name="Path 11898" d="M270.685,244.579a.555.555,0,0,1,.638.018l3.846,2.871,4.106-4.511-6.159-9.578-6.679,10.387,0,0-.727,1.131,2.116,1.578Z" transform="translate(-240.024 -213.88)" fill="#00b795"/>
      <path id="Path_11899" data-name="Path 11899" d="M73.862,283.343l-2.506-4.71-2.026,2.435a.554.554,0,0,1-.673.142L64.7,279.238l-2.92,1.937a.554.554,0,0,1-.585.017L58,279.338l-9.441,18.793H64.353l.453-.7,8.225-12.791Zm-9.206,7.942H62.534v-2.111h2.121Zm0-3.171H62.534V286h2.121Zm0-3.172H62.534v-2.111h2.121Z" transform="translate(-48.559 -253.78)" fill="#00b795"/>
      <path id="Path_11900" data-name="Path 11900" d="M215.991,322.515l-4.245,4.664a.554.554,0,0,1-.741.071l-3.936-2.939-2.861,1.9a.555.555,0,0,1-.638-.017l-2.367-1.766-7.971,12.4h31.959Zm-5.718,11.69h-2.121v-2.111h2.121Zm0-3.171h-2.121v-2.111h2.121Z" transform="translate(-176.12 -292.472)" fill="#00b795"/>
    </g>
  </g>
</svg>
